The.Theatre.Bizzare.2011.DVDRip.XviD-miRaGe


online info
___________

imdb: http://www.imdb.com/title/tt1763316/
runtime: 114 min
genre: horror
release date: 9 May 2012 (France)
plot: Down a seedy city street in her neighborhood, young Enola Penny is obsessed with what appears to be a long abandoned theatre. One night, she sees that the front door is slightly ajar and impulsively decides to sneak inside. But there in the dark, decrepit auditorium, a show unlike any other unfolds before her eyes. 


Info
____

Format : AVI

Format/Info : Audio Video Interleave

File size : 702 MiB

Duration : 1h 53mn

Overall bit rate mode : Variable

Overall bit rate : 863 Kbps


Video
_____

ID : 0

Format : MPEG-4 Visual

Codec ID : XVID

Codec ID/Hint : XviD

Duration : 1h 53mn

Bit rate : 734 Kbps

Width : 720 pixels

Height : 320 pixels

Display aspect ratio : 2.25:1

Frame rate : 23.976 fps

Color space : YUV

Chroma subsampling : 4:2:0

Bit depth : 8 bits

Scan type : Progressive

Compression mode : Lossy

Bits/(Pixel*Frame) : 0.133

Stream size : 598 MiB (85%)

Writing library : XviD 64


Audio
_____

ID : 1

Format : MPEG Audio

Format version : Version 1

Format profile : Layer 3

Mode : Joint stereo

Mode extension : MS Stereo

Codec ID : 55

Codec ID/Hint : MP3

Duration : 1h 53mn

Bit rate mode : Variable

Bit rate : 115 Kbps

Nominal bit rate : 128 Kbps

Channel(s) : 2 channels

Sampling rate : 48.0 KHz

Compression mode : Lossy

Stream size : 93.9 MiB (13%)

Alignment : Aligned on interleaves

Interleave, duration : 24 ms (0.58 video frame)

Interleave, preload duration : 159 ms


Poster:

 
http://i.imgur.com/OOyTE.jpg


Screenshots:

 
http://i.imgur.com/S1IhJ.jpg


ENJOY!